<?xml version="1.0" encoding="UTF-8" standalone="no"?>
<svg width="42px" height="42px" viewBox="0 0 42 42" version="1.1" xmlns="http://www.w3.org/2000/svg" xmlns:xlink="http://www.w3.org/1999/xlink" xmlns:sketch="http://www.bohemiancoding.com/sketch/ns">
    <!-- Generator: Sketch 3.0.4 (8054) - http://www.bohemiancoding.com/sketch -->
    <title>Arrow Right</title>
    <desc>Created with Sketch.</desc>
    <defs></defs>
    <g id="Welcome" stroke="none" stroke-width="1" fill="none" fill-rule="evenodd" sketch:type="MSPage">
        <g id="Mobile-Portrait" sketch:type="MSArtboardGroup" transform="translate(-139.000000, -299.000000)">
            <g id="Header" sketch:type="MSLayerGroup">
                <g id="Arrow-Right" transform="translate(160.000000, 320.000000) rotate(90.000000) translate(-160.000000, -320.000000) translate(140.000000, 300.000000)" sketch:type="MSShapeGroup">
                    <circle id="Oval-15" stroke="#4990E2" stroke-width="2" cx="20" cy="20" r="20"></circle>
                    <path d="M31.9082736,19.1304348 L5.62801932,19.1304348 C5.16111193,19.1304348 4.7826087,19.5197524 4.7826087,20 C4.7826087,20.4802476 5.16111193,20.8695652 5.62801932,20.8695652 L31.9082736,20.8695652 L31.9082736,20.8695652 L23.2065522,29.8199071 C22.8763989,30.1594935 22.8763989,30.7100717 23.2065522,31.0496581 C23.5367056,31.3892444 24.07199,31.3892444 24.4021434,31.0496581 L34.547071,20.6148755 C34.7121476,20.4450823 34.794686,20.2225411 34.794686,20 C34.794686,19.7774589 34.7121476,19.5549177 34.547071,19.3851245 L24.4021434,8.95034193 C24.07199,8.61075559 23.5367056,8.61075559 23.2065522,8.95034193 C22.8763989,9.28992827 22.8763989,9.84050651 23.2065522,10.1800929 L31.9082736,19.1304348 Z" id="Line" fill-opacity="0.87" fill="#FFFFFF"></path>
                </g>
            </g>
        </g>
    </g>
</svg>