<?xml version="1.0" encoding="UTF-8" standalone="no"?>
<svg width="31px" height="44px" viewBox="0 0 31 44" version="1.1" xmlns="http://www.w3.org/2000/svg" xmlns:xlink="http://www.w3.org/1999/xlink" xmlns:sketch="http://www.bohemiancoding.com/sketch/ns">
    <!-- Generator: Sketch 3.0.4 (8054) - http://www.bohemiancoding.com/sketch -->
    <title>Phone@2x</title>
    <desc>Created with Sketch.</desc>
    <defs></defs>
    <g id="Welcome" stroke="none" stroke-width="1" fill="none" fill-rule="evenodd" sketch:type="MSPage">
        <g id="Mobile-Portrait" sketch:type="MSArtboardGroup" transform="translate(-139.000000, -4029.000000)">
            <g id="Contact" sketch:type="MSLayerGroup" transform="translate(-861.000000, 3966.000000)">
                <g id="Phone" transform="translate(1000.000000, 63.000000)" sketch:type="MSShapeGroup">
                    <rect id="Rectangle-91" fill="#FFFFFF" x="1" y="1" width="28" height="42" rx="4"></rect>
                    <g id="phone" transform="translate(0.500000, 0.000000)" fill="#333333">
                        <g id="iphone">
                            <path d="M25.9090909,0 L4.09090909,0 C1.83,0 0,1.846625 0,4.125 L0,39.875 C0,42.15475 1.83136364,44 4.09090909,44 L25.9090909,44 C28.1672727,44 30,42.152 30,39.875 L30,4.125 C30,1.84525 28.1672727,0 25.9090909,0 L25.9090909,0 Z M27.2727273,39.875 C27.2727273,40.632625 26.6604545,41.25 25.9090909,41.25 L4.09090909,41.25 C3.33818182,41.25 2.72727273,40.635375 2.72727273,39.875 L2.72727273,37.1195 L27.2727273,37.1195 L27.2727273,39.875 L27.2727273,39.875 Z M27.2727273,35.7445 L2.72727273,35.7445 L2.72727273,8.25 L27.2727273,8.25 L27.2727273,35.7445 L27.2727273,35.7445 Z M27.2727273,6.875 L2.72727273,6.875 L2.72727273,4.125 C2.72727273,3.366 3.33818182,2.75 4.09090909,2.75 L25.9090909,2.75 C26.6604545,2.75 27.2727273,3.366 27.2727273,4.125 L27.2727273,6.875 L27.2727273,6.875 Z" id="Shape"></path>
                            <path d="M17.7272727,4.8125 C17.7272727,5.192 17.4204545,5.5 17.0454545,5.5 L12.9545455,5.5 C12.5768182,5.5 12.2727273,5.192 12.2727273,4.8125 L12.2727273,4.8125 C12.2727273,4.431625 12.5768182,4.125 12.9545455,4.125 L17.0454545,4.125 C17.4204545,4.125 17.7272727,4.431625 17.7272727,4.8125 L17.7272727,4.8125 L17.7272727,4.8125 Z" id="Shape"></path>
                            <path d="M16.3636364,39.182 C16.3636364,39.560125 16.0568182,39.8695 15.6818182,39.8695 L14.3181818,39.8695 C13.9418182,39.8695 13.6363636,39.560125 13.6363636,39.182 L13.6363636,39.182 C13.6363636,38.801125 13.9418182,38.4945 14.3181818,38.4945 L15.6818182,38.4945 C16.0568182,38.4945 16.3636364,38.801125 16.3636364,39.182 L16.3636364,39.182 L16.3636364,39.182 Z" id="Shape"></path>
                        </g>
                    </g>
                </g>
            </g>
        </g>
    </g>
</svg>