<?xml version="1.0" encoding="UTF-8" standalone="no"?>
<svg width="44px" height="44px" viewBox="0 0 44 44" version="1.1" xmlns="http://www.w3.org/2000/svg" xmlns:xlink="http://www.w3.org/1999/xlink" xmlns:sketch="http://www.bohemiancoding.com/sketch/ns">
    <!-- Generator: Sketch 3.0.4 (8054) - http://www.bohemiancoding.com/sketch -->
    <title>Plane</title>
    <desc>Created with Sketch.</desc>
    <defs></defs>
    <g id="Welcome" stroke="none" stroke-width="1" fill="none" fill-rule="evenodd" sketch:type="MSPage">
        <g id="Mobile-Portrait" sketch:type="MSArtboardGroup" transform="translate(-138.000000, -4335.000000)">
            <g id="Contact" sketch:type="MSLayerGroup" transform="translate(-861.000000, 3966.000000)">
                <g id="Plane" transform="translate(999.000000, 369.000000)" sketch:type="MSShapeGroup">
                    <path d="M12.2078133,32.985777 C8.43260354,29.6399461 2.05161285,28.9287751 2.05161285,28.9287751 L42.2800255,1.65119946 L35.1764107,42.1669427 L22,37.0467645 L17.539134,42.1669427 C17.539134,42.1669427 15.0589744,35.5126573 12.2078133,32.985777 Z" id="Polygon-1" fill="#FFFFFF"></path>
                    <g id="paperplane-2" fill="#333333">
                        <path d="M43.371625,0.22 C43.143375,0.072875 42.8835,0 42.625,0 C42.359625,0 42.092875,0.075625 41.861875,0.231 L0.611875,27.731 C0.187,28.012875 -0.04675,28.50925 0.00825,29.018 C0.0605,29.525375 0.3905,29.964 0.864875,30.151 L11.622875,34.456125 L16.6815,43.308375 C16.9235,43.73325 17.373125,43.995875 17.859875,44.001375 L17.875,44.001375 C18.357625,44.001375 18.805875,43.745625 19.053375,43.333125 L21.90925,38.5715 L35.239875,43.902375 C35.4035,43.968375 35.575375,44 35.75,44 C35.98375,44 36.21475,43.940875 36.42375,43.822625 C36.78675,43.619125 37.035625,43.261625 37.10575,42.8505 L43.98075,1.6005 C44.070125,1.060125 43.830875,0.518375 43.371625,0.22 L43.371625,0.22 Z M4.312,28.568375 L36.177625,7.32325 L13.008875,32.124125 C12.8865,32.05125 12.777875,31.955 12.643125,31.901375 L4.312,28.568375 L4.312,28.568375 Z M14.009875,33.09075 C14.007125,33.08525 14.003,33.0825 14.00025,33.077 L40.046875,5.198875 L17.842,39.796625 L14.009875,33.09075 L14.009875,33.09075 Z M34.673375,40.712375 L22.9295,36.015375 C22.650375,35.905375 22.36025,35.86825 22.072875,35.85175 L40.156875,7.81825 L34.673375,40.712375 L34.673375,40.712375 Z" id="paperplane"></path>
                    </g>
                </g>
            </g>
        </g>
    </g>
</svg>